<mxfile host="app.diagrams.net" modified="2023-02-13T08:39:38.145Z" agent="5.0 (Macintosh; Intel Mac OS X 10_15_7) AppleWebKit/537.36 (KHTML, like Gecko) Chrome/109.0.0.0 Safari/537.36" etag="WlpOBX9skPQWeLsr7AdH" version="20.8.20" type="github">
  <diagram name="페이지-1" id="M64TTkhPT-icg04JLlUk">
    <mxGraphModel dx="3553" dy="1691" grid="1" gridSize="10" guides="1" tooltips="1" connect="1" arrows="1" fold="1" page="1" pageScale="1" pageWidth="827" pageHeight="1169" math="0" shadow="0">
      <root>
        <mxCell id="0" />
        <mxCell id="1" parent="0" />
        <mxCell id="mdGPTOdEGKRFOdZcjMkD-22" style="edgeStyle=orthogonalEdgeStyle;rounded=1;orthogonalLoop=1;jettySize=auto;html=1;exitX=0.25;exitY=0;exitDx=0;exitDy=0;entryX=1;entryY=0.5;entryDx=0;entryDy=0;endArrow=none;endFill=0;" parent="1" source="mdGPTOdEGKRFOdZcjMkD-1" target="mdGPTOdEGKRFOdZcjMkD-2" edge="1">
          <mxGeometry relative="1" as="geometry">
            <Array as="points">
              <mxPoint x="223" y="90" />
            </Array>
          </mxGeometry>
        </mxCell>
        <mxCell id="mdGPTOdEGKRFOdZcjMkD-24" style="edgeStyle=orthogonalEdgeStyle;rounded=1;orthogonalLoop=1;jettySize=auto;html=1;exitX=0.5;exitY=0;exitDx=0;exitDy=0;endArrow=none;endFill=0;" parent="1" source="mdGPTOdEGKRFOdZcjMkD-1" target="mdGPTOdEGKRFOdZcjMkD-5" edge="1">
          <mxGeometry relative="1" as="geometry">
            <Array as="points">
              <mxPoint x="245" y="110" />
              <mxPoint x="270" y="110" />
            </Array>
          </mxGeometry>
        </mxCell>
        <mxCell id="mdGPTOdEGKRFOdZcjMkD-25" style="edgeStyle=orthogonalEdgeStyle;rounded=1;orthogonalLoop=1;jettySize=auto;html=1;exitX=0.75;exitY=0;exitDx=0;exitDy=0;entryX=0.5;entryY=1;entryDx=0;entryDy=0;endArrow=none;endFill=0;" parent="1" source="mdGPTOdEGKRFOdZcjMkD-1" target="mdGPTOdEGKRFOdZcjMkD-6" edge="1">
          <mxGeometry relative="1" as="geometry" />
        </mxCell>
        <mxCell id="mdGPTOdEGKRFOdZcjMkD-26" style="edgeStyle=orthogonalEdgeStyle;rounded=1;orthogonalLoop=1;jettySize=auto;html=1;exitX=1;exitY=0.5;exitDx=0;exitDy=0;entryX=0.5;entryY=1;entryDx=0;entryDy=0;endArrow=none;endFill=0;" parent="1" source="mdGPTOdEGKRFOdZcjMkD-1" target="mdGPTOdEGKRFOdZcjMkD-7" edge="1">
          <mxGeometry relative="1" as="geometry" />
        </mxCell>
        <mxCell id="mdGPTOdEGKRFOdZcjMkD-27" style="edgeStyle=orthogonalEdgeStyle;rounded=1;orthogonalLoop=1;jettySize=auto;html=1;exitX=0.378;exitY=0;exitDx=0;exitDy=0;entryX=1;entryY=1;entryDx=0;entryDy=0;exitPerimeter=0;endArrow=none;endFill=0;" parent="1" source="mdGPTOdEGKRFOdZcjMkD-1" target="mdGPTOdEGKRFOdZcjMkD-4" edge="1">
          <mxGeometry relative="1" as="geometry">
            <Array as="points">
              <mxPoint x="234" y="130" />
              <mxPoint x="241" y="130" />
            </Array>
          </mxGeometry>
        </mxCell>
        <mxCell id="T7kxes3MqO8vL_r_xMGx-1" style="edgeStyle=orthogonalEdgeStyle;rounded=0;orthogonalLoop=1;jettySize=auto;html=1;exitX=0.5;exitY=1;exitDx=0;exitDy=0;entryX=0.5;entryY=0;entryDx=0;entryDy=0;startArrow=ERone;startFill=0;endArrow=none;endFill=0;" edge="1" parent="1" source="mdGPTOdEGKRFOdZcjMkD-1" target="mdGPTOdEGKRFOdZcjMkD-64">
          <mxGeometry relative="1" as="geometry" />
        </mxCell>
        <mxCell id="mdGPTOdEGKRFOdZcjMkD-1" value="근무 설정" style="rounded=0;whiteSpace=wrap;html=1;labelBackgroundColor=none;" parent="1" vertex="1">
          <mxGeometry x="200" y="180" width="110" height="40" as="geometry" />
        </mxCell>
        <mxCell id="mdGPTOdEGKRFOdZcjMkD-2" value="근무 유형" style="ellipse;whiteSpace=wrap;html=1;labelBackgroundColor=none;" parent="1" vertex="1">
          <mxGeometry x="150" y="70" width="60" height="40" as="geometry" />
        </mxCell>
        <mxCell id="mdGPTOdEGKRFOdZcjMkD-4" value="근무 일" style="ellipse;whiteSpace=wrap;html=1;labelBackgroundColor=none;" parent="1" vertex="1">
          <mxGeometry x="190" y="30" width="60" height="40" as="geometry" />
        </mxCell>
        <mxCell id="mdGPTOdEGKRFOdZcjMkD-5" value="근무 시간" style="ellipse;whiteSpace=wrap;html=1;labelBackgroundColor=none;" parent="1" vertex="1">
          <mxGeometry x="260" y="30" width="60" height="40" as="geometry" />
        </mxCell>
        <mxCell id="mdGPTOdEGKRFOdZcjMkD-6" value="휴게 시간" style="ellipse;whiteSpace=wrap;html=1;labelBackgroundColor=none;" parent="1" vertex="1">
          <mxGeometry x="300" y="70" width="60" height="40" as="geometry" />
        </mxCell>
        <mxCell id="mdGPTOdEGKRFOdZcjMkD-7" value="출퇴근 시간" style="ellipse;whiteSpace=wrap;html=1;labelBackgroundColor=none;" parent="1" vertex="1">
          <mxGeometry x="340" y="110" width="60" height="40" as="geometry" />
        </mxCell>
        <mxCell id="mdGPTOdEGKRFOdZcjMkD-8" value="소정 근로시간" style="ellipse;whiteSpace=wrap;html=1;labelBackgroundColor=none;" parent="1" vertex="1">
          <mxGeometry x="110" y="110" width="70" height="40" as="geometry" />
        </mxCell>
        <mxCell id="mdGPTOdEGKRFOdZcjMkD-11" value="" style="endArrow=none;html=1;exitX=0.111;exitY=-0.03;exitDx=0;exitDy=0;entryX=1;entryY=0.5;entryDx=0;entryDy=0;rounded=1;exitPerimeter=0;labelBackgroundColor=none;fontColor=default;" parent="1" source="mdGPTOdEGKRFOdZcjMkD-1" target="mdGPTOdEGKRFOdZcjMkD-8" edge="1">
          <mxGeometry width="50" height="50" relative="1" as="geometry">
            <mxPoint x="360" y="190" as="sourcePoint" />
            <mxPoint x="410" y="140" as="targetPoint" />
            <Array as="points">
              <mxPoint x="210" y="130" />
            </Array>
          </mxGeometry>
        </mxCell>
        <mxCell id="mdGPTOdEGKRFOdZcjMkD-37" style="edgeStyle=orthogonalEdgeStyle;rounded=1;orthogonalLoop=1;jettySize=auto;html=1;entryX=1;entryY=1;entryDx=0;entryDy=0;endArrow=none;endFill=0;" parent="1" source="mdGPTOdEGKRFOdZcjMkD-29" target="mdGPTOdEGKRFOdZcjMkD-35" edge="1">
          <mxGeometry relative="1" as="geometry" />
        </mxCell>
        <mxCell id="mdGPTOdEGKRFOdZcjMkD-38" style="edgeStyle=orthogonalEdgeStyle;rounded=1;orthogonalLoop=1;jettySize=auto;html=1;exitX=0.25;exitY=0;exitDx=0;exitDy=0;entryX=0.7;entryY=0.963;entryDx=0;entryDy=0;entryPerimeter=0;endArrow=none;endFill=0;" parent="1" source="mdGPTOdEGKRFOdZcjMkD-29" target="mdGPTOdEGKRFOdZcjMkD-34" edge="1">
          <mxGeometry relative="1" as="geometry" />
        </mxCell>
        <mxCell id="mdGPTOdEGKRFOdZcjMkD-39" style="edgeStyle=orthogonalEdgeStyle;rounded=1;orthogonalLoop=1;jettySize=auto;html=1;exitX=0.25;exitY=0;exitDx=0;exitDy=0;entryX=0.5;entryY=1;entryDx=0;entryDy=0;endArrow=none;endFill=0;" parent="1" source="mdGPTOdEGKRFOdZcjMkD-29" target="mdGPTOdEGKRFOdZcjMkD-30" edge="1">
          <mxGeometry relative="1" as="geometry" />
        </mxCell>
        <mxCell id="mdGPTOdEGKRFOdZcjMkD-111" style="edgeStyle=orthogonalEdgeStyle;rounded=1;orthogonalLoop=1;jettySize=auto;html=1;exitX=0.75;exitY=1;exitDx=0;exitDy=0;entryX=0.5;entryY=0;entryDx=0;entryDy=0;endArrow=none;endFill=0;startArrow=ERmany;startFill=0;" parent="1" source="mdGPTOdEGKRFOdZcjMkD-29" target="mdGPTOdEGKRFOdZcjMkD-110" edge="1">
          <mxGeometry relative="1" as="geometry" />
        </mxCell>
        <mxCell id="T7kxes3MqO8vL_r_xMGx-2" style="edgeStyle=orthogonalEdgeStyle;rounded=0;orthogonalLoop=1;jettySize=auto;html=1;exitX=0.25;exitY=1;exitDx=0;exitDy=0;entryX=1;entryY=0;entryDx=0;entryDy=0;startArrow=ERone;startFill=0;endArrow=none;endFill=0;" edge="1" parent="1" source="mdGPTOdEGKRFOdZcjMkD-29" target="mdGPTOdEGKRFOdZcjMkD-65">
          <mxGeometry relative="1" as="geometry" />
        </mxCell>
        <mxCell id="mdGPTOdEGKRFOdZcjMkD-29" value="근무 스케줄 관리" style="rounded=0;whiteSpace=wrap;html=1;" parent="1" vertex="1">
          <mxGeometry x="510" y="140" width="105" height="50" as="geometry" />
        </mxCell>
        <mxCell id="mdGPTOdEGKRFOdZcjMkD-30" value="승인상태" style="ellipse;whiteSpace=wrap;html=1;" parent="1" vertex="1">
          <mxGeometry x="555" y="40" width="60" height="40" as="geometry" />
        </mxCell>
        <mxCell id="mdGPTOdEGKRFOdZcjMkD-50" style="edgeStyle=orthogonalEdgeStyle;rounded=1;orthogonalLoop=1;jettySize=auto;html=1;exitX=0;exitY=1;exitDx=0;exitDy=0;entryX=0.75;entryY=0;entryDx=0;entryDy=0;endArrow=none;endFill=0;" parent="1" source="mdGPTOdEGKRFOdZcjMkD-31" target="mdGPTOdEGKRFOdZcjMkD-29" edge="1">
          <mxGeometry relative="1" as="geometry" />
        </mxCell>
        <mxCell id="mdGPTOdEGKRFOdZcjMkD-31" value="신청일자" style="ellipse;whiteSpace=wrap;html=1;" parent="1" vertex="1">
          <mxGeometry x="630" y="50" width="60" height="40" as="geometry" />
        </mxCell>
        <mxCell id="mdGPTOdEGKRFOdZcjMkD-51" style="edgeStyle=orthogonalEdgeStyle;rounded=1;orthogonalLoop=1;jettySize=auto;html=1;exitX=0;exitY=0.5;exitDx=0;exitDy=0;entryX=0.933;entryY=0.01;entryDx=0;entryDy=0;entryPerimeter=0;endArrow=none;endFill=0;" parent="1" source="mdGPTOdEGKRFOdZcjMkD-32" target="mdGPTOdEGKRFOdZcjMkD-29" edge="1">
          <mxGeometry relative="1" as="geometry" />
        </mxCell>
        <mxCell id="mdGPTOdEGKRFOdZcjMkD-32" value="신청자(사원)" style="ellipse;whiteSpace=wrap;html=1;" parent="1" vertex="1">
          <mxGeometry x="640" y="90" width="70" height="40" as="geometry" />
        </mxCell>
        <mxCell id="mdGPTOdEGKRFOdZcjMkD-34" value="근무유형" style="ellipse;whiteSpace=wrap;html=1;" parent="1" vertex="1">
          <mxGeometry x="490" y="60" width="50" height="40" as="geometry" />
        </mxCell>
        <mxCell id="mdGPTOdEGKRFOdZcjMkD-35" value="근무시간" style="ellipse;whiteSpace=wrap;html=1;" parent="1" vertex="1">
          <mxGeometry x="450" y="100" width="60" height="40" as="geometry" />
        </mxCell>
        <mxCell id="mdGPTOdEGKRFOdZcjMkD-52" style="edgeStyle=orthogonalEdgeStyle;rounded=1;orthogonalLoop=1;jettySize=auto;html=1;exitX=0;exitY=0.5;exitDx=0;exitDy=0;endArrow=none;endFill=0;" parent="1" source="mdGPTOdEGKRFOdZcjMkD-36" target="mdGPTOdEGKRFOdZcjMkD-29" edge="1">
          <mxGeometry relative="1" as="geometry" />
        </mxCell>
        <mxCell id="mdGPTOdEGKRFOdZcjMkD-36" value="적용기간" style="ellipse;whiteSpace=wrap;html=1;" parent="1" vertex="1">
          <mxGeometry x="645" y="145" width="60" height="40" as="geometry" />
        </mxCell>
        <mxCell id="mdGPTOdEGKRFOdZcjMkD-66" style="edgeStyle=orthogonalEdgeStyle;rounded=1;orthogonalLoop=1;jettySize=auto;html=1;exitX=1;exitY=0.5;exitDx=0;exitDy=0;entryX=0.5;entryY=1;entryDx=0;entryDy=0;endArrow=none;endFill=0;startArrow=ERmany;startFill=0;" parent="1" source="mdGPTOdEGKRFOdZcjMkD-40" target="mdGPTOdEGKRFOdZcjMkD-64" edge="1">
          <mxGeometry relative="1" as="geometry" />
        </mxCell>
        <mxCell id="mdGPTOdEGKRFOdZcjMkD-68" style="edgeStyle=orthogonalEdgeStyle;rounded=1;orthogonalLoop=1;jettySize=auto;html=1;exitX=1;exitY=0.75;exitDx=0;exitDy=0;entryX=0.5;entryY=1;entryDx=0;entryDy=0;endArrow=none;endFill=0;startArrow=ERmany;startFill=0;" parent="1" source="mdGPTOdEGKRFOdZcjMkD-40" target="mdGPTOdEGKRFOdZcjMkD-65" edge="1">
          <mxGeometry relative="1" as="geometry" />
        </mxCell>
        <mxCell id="mdGPTOdEGKRFOdZcjMkD-91" style="edgeStyle=orthogonalEdgeStyle;rounded=1;orthogonalLoop=1;jettySize=auto;html=1;exitX=0.5;exitY=1;exitDx=0;exitDy=0;entryX=0.5;entryY=0;entryDx=0;entryDy=0;endArrow=none;endFill=0;" parent="1" source="mdGPTOdEGKRFOdZcjMkD-40" target="mdGPTOdEGKRFOdZcjMkD-90" edge="1">
          <mxGeometry relative="1" as="geometry" />
        </mxCell>
        <mxCell id="T7kxes3MqO8vL_r_xMGx-4" style="edgeStyle=orthogonalEdgeStyle;rounded=0;orthogonalLoop=1;jettySize=auto;html=1;exitX=0.75;exitY=1;exitDx=0;exitDy=0;entryX=0;entryY=0.5;entryDx=0;entryDy=0;startArrow=ERmany;startFill=0;endArrow=none;endFill=0;" edge="1" parent="1" source="mdGPTOdEGKRFOdZcjMkD-40" target="mdGPTOdEGKRFOdZcjMkD-58">
          <mxGeometry relative="1" as="geometry" />
        </mxCell>
        <mxCell id="mdGPTOdEGKRFOdZcjMkD-40" value="근무 스케줄 신청" style="rounded=0;whiteSpace=wrap;html=1;" parent="1" vertex="1">
          <mxGeometry x="135" y="305" width="90" height="50" as="geometry" />
        </mxCell>
        <mxCell id="mdGPTOdEGKRFOdZcjMkD-160" style="edgeStyle=orthogonalEdgeStyle;rounded=1;orthogonalLoop=1;jettySize=auto;html=1;exitX=1;exitY=0.75;exitDx=0;exitDy=0;endArrow=none;endFill=0;startArrow=ERmany;startFill=0;" parent="1" source="mdGPTOdEGKRFOdZcjMkD-41" target="mdGPTOdEGKRFOdZcjMkD-158" edge="1">
          <mxGeometry relative="1" as="geometry" />
        </mxCell>
        <mxCell id="T7kxes3MqO8vL_r_xMGx-8" style="edgeStyle=orthogonalEdgeStyle;rounded=0;orthogonalLoop=1;jettySize=auto;html=1;exitX=1;exitY=0.5;exitDx=0;exitDy=0;entryX=0;entryY=0.5;entryDx=0;entryDy=0;startArrow=ERone;startFill=0;endArrow=none;endFill=0;" edge="1" parent="1" source="mdGPTOdEGKRFOdZcjMkD-41" target="mdGPTOdEGKRFOdZcjMkD-80">
          <mxGeometry relative="1" as="geometry" />
        </mxCell>
        <mxCell id="mdGPTOdEGKRFOdZcjMkD-41" value="일일근태 등록" style="rounded=0;whiteSpace=wrap;html=1;" parent="1" vertex="1">
          <mxGeometry x="65" y="460" width="90" height="40" as="geometry" />
        </mxCell>
        <mxCell id="T7kxes3MqO8vL_r_xMGx-9" style="edgeStyle=orthogonalEdgeStyle;rounded=0;orthogonalLoop=1;jettySize=auto;html=1;exitX=0.5;exitY=0;exitDx=0;exitDy=0;entryX=0.113;entryY=0.606;entryDx=0;entryDy=0;entryPerimeter=0;startArrow=ERone;startFill=0;endArrow=none;endFill=0;" edge="1" parent="1" source="mdGPTOdEGKRFOdZcjMkD-42" target="mdGPTOdEGKRFOdZcjMkD-134">
          <mxGeometry relative="1" as="geometry">
            <Array as="points">
              <mxPoint x="165" y="670" />
              <mxPoint x="280" y="670" />
              <mxPoint x="280" y="636" />
            </Array>
          </mxGeometry>
        </mxCell>
        <mxCell id="T7kxes3MqO8vL_r_xMGx-10" style="edgeStyle=orthogonalEdgeStyle;rounded=0;orthogonalLoop=1;jettySize=auto;html=1;exitX=0.75;exitY=0;exitDx=0;exitDy=0;entryX=0;entryY=0.5;entryDx=0;entryDy=0;startArrow=ERmany;startFill=0;endArrow=none;endFill=0;" edge="1" parent="1" source="mdGPTOdEGKRFOdZcjMkD-42" target="mdGPTOdEGKRFOdZcjMkD-210">
          <mxGeometry relative="1" as="geometry">
            <Array as="points">
              <mxPoint x="188" y="710" />
              <mxPoint x="270" y="710" />
              <mxPoint x="270" y="520" />
              <mxPoint x="510" y="520" />
            </Array>
          </mxGeometry>
        </mxCell>
        <mxCell id="T7kxes3MqO8vL_r_xMGx-13" style="edgeStyle=orthogonalEdgeStyle;rounded=0;orthogonalLoop=1;jettySize=auto;html=1;exitX=1;exitY=0.5;exitDx=0;exitDy=0;entryX=0;entryY=0.5;entryDx=0;entryDy=0;startArrow=ERzeroToOne;startFill=0;endArrow=none;endFill=0;" edge="1" parent="1" source="mdGPTOdEGKRFOdZcjMkD-42" target="T7kxes3MqO8vL_r_xMGx-12">
          <mxGeometry relative="1" as="geometry" />
        </mxCell>
        <mxCell id="T7kxes3MqO8vL_r_xMGx-18" style="edgeStyle=orthogonalEdgeStyle;rounded=0;orthogonalLoop=1;jettySize=auto;html=1;exitX=0;exitY=1;exitDx=0;exitDy=0;entryX=0.5;entryY=1;entryDx=0;entryDy=0;startArrow=ERone;startFill=0;endArrow=none;endFill=0;" edge="1" parent="1" source="mdGPTOdEGKRFOdZcjMkD-42" target="T7kxes3MqO8vL_r_xMGx-16">
          <mxGeometry relative="1" as="geometry" />
        </mxCell>
        <mxCell id="mdGPTOdEGKRFOdZcjMkD-42" value="연장근무/근태조정/휴가 신청 관리&amp;nbsp;" style="rounded=0;whiteSpace=wrap;html=1;" parent="1" vertex="1">
          <mxGeometry x="120" y="760" width="90" height="50" as="geometry" />
        </mxCell>
        <mxCell id="mdGPTOdEGKRFOdZcjMkD-103" style="edgeStyle=orthogonalEdgeStyle;rounded=1;orthogonalLoop=1;jettySize=auto;html=1;exitX=0.5;exitY=0;exitDx=0;exitDy=0;entryX=0.5;entryY=1;entryDx=0;entryDy=0;endArrow=none;endFill=0;" parent="1" source="mdGPTOdEGKRFOdZcjMkD-43" target="mdGPTOdEGKRFOdZcjMkD-98" edge="1">
          <mxGeometry relative="1" as="geometry" />
        </mxCell>
        <mxCell id="mdGPTOdEGKRFOdZcjMkD-104" style="edgeStyle=orthogonalEdgeStyle;rounded=1;orthogonalLoop=1;jettySize=auto;html=1;exitX=0.25;exitY=0;exitDx=0;exitDy=0;entryX=0.5;entryY=1;entryDx=0;entryDy=0;endArrow=none;endFill=0;" parent="1" source="mdGPTOdEGKRFOdZcjMkD-43" target="mdGPTOdEGKRFOdZcjMkD-97" edge="1">
          <mxGeometry relative="1" as="geometry" />
        </mxCell>
        <mxCell id="mdGPTOdEGKRFOdZcjMkD-105" style="edgeStyle=orthogonalEdgeStyle;rounded=1;orthogonalLoop=1;jettySize=auto;html=1;exitX=0.75;exitY=0;exitDx=0;exitDy=0;entryX=0.5;entryY=1;entryDx=0;entryDy=0;endArrow=none;endFill=0;" parent="1" source="mdGPTOdEGKRFOdZcjMkD-43" target="mdGPTOdEGKRFOdZcjMkD-99" edge="1">
          <mxGeometry relative="1" as="geometry" />
        </mxCell>
        <mxCell id="mdGPTOdEGKRFOdZcjMkD-106" style="edgeStyle=orthogonalEdgeStyle;rounded=1;orthogonalLoop=1;jettySize=auto;html=1;exitX=1;exitY=0;exitDx=0;exitDy=0;entryX=0;entryY=1;entryDx=0;entryDy=0;endArrow=none;endFill=0;" parent="1" source="mdGPTOdEGKRFOdZcjMkD-43" target="mdGPTOdEGKRFOdZcjMkD-101" edge="1">
          <mxGeometry relative="1" as="geometry" />
        </mxCell>
        <mxCell id="mdGPTOdEGKRFOdZcjMkD-108" style="edgeStyle=orthogonalEdgeStyle;rounded=1;orthogonalLoop=1;jettySize=auto;html=1;exitX=1;exitY=0.5;exitDx=0;exitDy=0;entryX=0;entryY=1;entryDx=0;entryDy=0;endArrow=none;endFill=0;" parent="1" source="mdGPTOdEGKRFOdZcjMkD-43" target="mdGPTOdEGKRFOdZcjMkD-100" edge="1">
          <mxGeometry relative="1" as="geometry" />
        </mxCell>
        <mxCell id="mdGPTOdEGKRFOdZcjMkD-109" style="edgeStyle=orthogonalEdgeStyle;rounded=1;orthogonalLoop=1;jettySize=auto;html=1;exitX=1;exitY=0.75;exitDx=0;exitDy=0;entryX=0;entryY=0.5;entryDx=0;entryDy=0;endArrow=none;endFill=0;" parent="1" source="mdGPTOdEGKRFOdZcjMkD-43" target="mdGPTOdEGKRFOdZcjMkD-102" edge="1">
          <mxGeometry relative="1" as="geometry" />
        </mxCell>
        <mxCell id="mdGPTOdEGKRFOdZcjMkD-135" style="edgeStyle=orthogonalEdgeStyle;rounded=1;orthogonalLoop=1;jettySize=auto;html=1;entryX=1;entryY=0.5;entryDx=0;entryDy=0;endArrow=none;endFill=0;startArrow=ERmany;startFill=0;exitX=0;exitY=0.75;exitDx=0;exitDy=0;" parent="1" source="mdGPTOdEGKRFOdZcjMkD-43" target="mdGPTOdEGKRFOdZcjMkD-134" edge="1">
          <mxGeometry relative="1" as="geometry">
            <mxPoint x="650" y="340" as="sourcePoint" />
            <Array as="points">
              <mxPoint x="620" y="346" />
              <mxPoint x="620" y="380" />
              <mxPoint x="502" y="380" />
              <mxPoint x="502" y="630" />
            </Array>
          </mxGeometry>
        </mxCell>
        <mxCell id="T7kxes3MqO8vL_r_xMGx-20" style="edgeStyle=orthogonalEdgeStyle;rounded=0;orthogonalLoop=1;jettySize=auto;html=1;exitX=0;exitY=0.5;exitDx=0;exitDy=0;entryX=1;entryY=0.5;entryDx=0;entryDy=0;startArrow=ERone;startFill=0;endArrow=none;endFill=0;" edge="1" parent="1" source="mdGPTOdEGKRFOdZcjMkD-43" target="mdGPTOdEGKRFOdZcjMkD-110">
          <mxGeometry relative="1" as="geometry" />
        </mxCell>
        <mxCell id="mdGPTOdEGKRFOdZcjMkD-43" value="연장근무/근태조정/ 휴가 신청&amp;nbsp;" style="rounded=0;whiteSpace=wrap;html=1;" parent="1" vertex="1">
          <mxGeometry x="650" y="305" width="85" height="55" as="geometry" />
        </mxCell>
        <mxCell id="mdGPTOdEGKRFOdZcjMkD-144" style="edgeStyle=orthogonalEdgeStyle;rounded=1;orthogonalLoop=1;jettySize=auto;html=1;exitX=0.5;exitY=0;exitDx=0;exitDy=0;entryX=0.5;entryY=1;entryDx=0;entryDy=0;endArrow=none;endFill=0;" parent="1" source="mdGPTOdEGKRFOdZcjMkD-44" target="mdGPTOdEGKRFOdZcjMkD-138" edge="1">
          <mxGeometry relative="1" as="geometry" />
        </mxCell>
        <mxCell id="mdGPTOdEGKRFOdZcjMkD-145" style="edgeStyle=orthogonalEdgeStyle;rounded=1;orthogonalLoop=1;jettySize=auto;html=1;exitX=0.25;exitY=0;exitDx=0;exitDy=0;entryX=1;entryY=0.5;entryDx=0;entryDy=0;endArrow=none;endFill=0;" parent="1" source="mdGPTOdEGKRFOdZcjMkD-44" target="mdGPTOdEGKRFOdZcjMkD-137" edge="1">
          <mxGeometry relative="1" as="geometry">
            <Array as="points">
              <mxPoint x="340" y="740" />
              <mxPoint x="340" y="690" />
            </Array>
          </mxGeometry>
        </mxCell>
        <mxCell id="mdGPTOdEGKRFOdZcjMkD-146" style="edgeStyle=orthogonalEdgeStyle;rounded=1;orthogonalLoop=1;jettySize=auto;html=1;exitX=0;exitY=0.25;exitDx=0;exitDy=0;endArrow=none;endFill=0;" parent="1" source="mdGPTOdEGKRFOdZcjMkD-44" target="mdGPTOdEGKRFOdZcjMkD-140" edge="1">
          <mxGeometry relative="1" as="geometry" />
        </mxCell>
        <mxCell id="mdGPTOdEGKRFOdZcjMkD-147" style="edgeStyle=orthogonalEdgeStyle;rounded=1;orthogonalLoop=1;jettySize=auto;html=1;exitX=0.25;exitY=1;exitDx=0;exitDy=0;entryX=1;entryY=0;entryDx=0;entryDy=0;endArrow=none;endFill=0;" parent="1" source="mdGPTOdEGKRFOdZcjMkD-44" target="mdGPTOdEGKRFOdZcjMkD-141" edge="1">
          <mxGeometry relative="1" as="geometry" />
        </mxCell>
        <mxCell id="mdGPTOdEGKRFOdZcjMkD-148" style="edgeStyle=orthogonalEdgeStyle;rounded=1;orthogonalLoop=1;jettySize=auto;html=1;exitX=0.5;exitY=1;exitDx=0;exitDy=0;endArrow=none;endFill=0;entryX=0.5;entryY=0;entryDx=0;entryDy=0;" parent="1" source="mdGPTOdEGKRFOdZcjMkD-44" target="mdGPTOdEGKRFOdZcjMkD-142" edge="1">
          <mxGeometry relative="1" as="geometry">
            <mxPoint x="400" y="819.9999999999998" as="targetPoint" />
            <Array as="points">
              <mxPoint x="390" y="800" />
              <mxPoint x="400" y="800" />
            </Array>
          </mxGeometry>
        </mxCell>
        <mxCell id="T7kxes3MqO8vL_r_xMGx-14" style="edgeStyle=orthogonalEdgeStyle;rounded=0;orthogonalLoop=1;jettySize=auto;html=1;exitX=1;exitY=0.5;exitDx=0;exitDy=0;entryX=1;entryY=0.5;entryDx=0;entryDy=0;startArrow=ERzeroToMany;startFill=0;endArrow=none;endFill=0;" edge="1" parent="1" source="mdGPTOdEGKRFOdZcjMkD-44" target="T7kxes3MqO8vL_r_xMGx-12">
          <mxGeometry relative="1" as="geometry" />
        </mxCell>
        <mxCell id="mdGPTOdEGKRFOdZcjMkD-44" value="전자결제 진행상태 조회" style="rounded=0;whiteSpace=wrap;html=1;" parent="1" vertex="1">
          <mxGeometry x="350" y="740" width="80" height="40" as="geometry" />
        </mxCell>
        <mxCell id="mdGPTOdEGKRFOdZcjMkD-183" style="edgeStyle=orthogonalEdgeStyle;rounded=1;orthogonalLoop=1;jettySize=auto;html=1;exitX=0.5;exitY=0;exitDx=0;exitDy=0;entryX=0.5;entryY=1;entryDx=0;entryDy=0;endArrow=none;endFill=0;" parent="1" source="mdGPTOdEGKRFOdZcjMkD-45" target="mdGPTOdEGKRFOdZcjMkD-177" edge="1">
          <mxGeometry relative="1" as="geometry" />
        </mxCell>
        <mxCell id="mdGPTOdEGKRFOdZcjMkD-184" style="edgeStyle=orthogonalEdgeStyle;rounded=1;orthogonalLoop=1;jettySize=auto;html=1;exitX=0;exitY=0.25;exitDx=0;exitDy=0;entryX=0.5;entryY=1;entryDx=0;entryDy=0;endArrow=none;endFill=0;" parent="1" source="mdGPTOdEGKRFOdZcjMkD-45" target="mdGPTOdEGKRFOdZcjMkD-174" edge="1">
          <mxGeometry relative="1" as="geometry" />
        </mxCell>
        <mxCell id="mdGPTOdEGKRFOdZcjMkD-185" value="" style="edgeStyle=orthogonalEdgeStyle;rounded=1;orthogonalLoop=1;jettySize=auto;html=1;endArrow=none;endFill=0;" parent="1" source="mdGPTOdEGKRFOdZcjMkD-45" target="mdGPTOdEGKRFOdZcjMkD-176" edge="1">
          <mxGeometry relative="1" as="geometry" />
        </mxCell>
        <mxCell id="mdGPTOdEGKRFOdZcjMkD-186" style="edgeStyle=orthogonalEdgeStyle;rounded=1;orthogonalLoop=1;jettySize=auto;html=1;exitX=1;exitY=0.5;exitDx=0;exitDy=0;entryX=0;entryY=1;entryDx=0;entryDy=0;endArrow=none;endFill=0;" parent="1" source="mdGPTOdEGKRFOdZcjMkD-45" target="mdGPTOdEGKRFOdZcjMkD-180" edge="1">
          <mxGeometry relative="1" as="geometry" />
        </mxCell>
        <mxCell id="mdGPTOdEGKRFOdZcjMkD-187" style="edgeStyle=orthogonalEdgeStyle;rounded=1;orthogonalLoop=1;jettySize=auto;html=1;exitX=1;exitY=1;exitDx=0;exitDy=0;entryX=0.5;entryY=0;entryDx=0;entryDy=0;endArrow=none;endFill=0;" parent="1" source="mdGPTOdEGKRFOdZcjMkD-45" target="mdGPTOdEGKRFOdZcjMkD-182" edge="1">
          <mxGeometry relative="1" as="geometry" />
        </mxCell>
        <mxCell id="mdGPTOdEGKRFOdZcjMkD-188" style="edgeStyle=orthogonalEdgeStyle;rounded=1;orthogonalLoop=1;jettySize=auto;html=1;exitX=0.75;exitY=1;exitDx=0;exitDy=0;entryX=0;entryY=0;entryDx=0;entryDy=0;endArrow=none;endFill=0;" parent="1" source="mdGPTOdEGKRFOdZcjMkD-45" target="mdGPTOdEGKRFOdZcjMkD-179" edge="1">
          <mxGeometry relative="1" as="geometry" />
        </mxCell>
        <mxCell id="mdGPTOdEGKRFOdZcjMkD-189" style="edgeStyle=orthogonalEdgeStyle;rounded=1;orthogonalLoop=1;jettySize=auto;html=1;exitX=0;exitY=0.75;exitDx=0;exitDy=0;entryX=1.033;entryY=0.279;entryDx=0;entryDy=0;entryPerimeter=0;endArrow=none;endFill=0;" parent="1" source="mdGPTOdEGKRFOdZcjMkD-45" target="mdGPTOdEGKRFOdZcjMkD-175" edge="1">
          <mxGeometry relative="1" as="geometry" />
        </mxCell>
        <mxCell id="T7kxes3MqO8vL_r_xMGx-15" style="edgeStyle=orthogonalEdgeStyle;rounded=0;orthogonalLoop=1;jettySize=auto;html=1;exitX=0.25;exitY=0;exitDx=0;exitDy=0;entryX=1;entryY=0.5;entryDx=0;entryDy=0;startArrow=ERone;startFill=0;endArrow=none;endFill=0;" edge="1" parent="1" source="mdGPTOdEGKRFOdZcjMkD-45" target="mdGPTOdEGKRFOdZcjMkD-203">
          <mxGeometry relative="1" as="geometry" />
        </mxCell>
        <mxCell id="mdGPTOdEGKRFOdZcjMkD-45" value="연차생성" style="rounded=0;whiteSpace=wrap;html=1;" parent="1" vertex="1">
          <mxGeometry x="660" y="650" width="90" height="50" as="geometry" />
        </mxCell>
        <mxCell id="mdGPTOdEGKRFOdZcjMkD-196" style="edgeStyle=orthogonalEdgeStyle;rounded=1;orthogonalLoop=1;jettySize=auto;html=1;exitX=0.5;exitY=0;exitDx=0;exitDy=0;entryX=1;entryY=1;entryDx=0;entryDy=0;endArrow=none;endFill=0;" parent="1" source="mdGPTOdEGKRFOdZcjMkD-46" target="mdGPTOdEGKRFOdZcjMkD-190" edge="1">
          <mxGeometry relative="1" as="geometry" />
        </mxCell>
        <mxCell id="mdGPTOdEGKRFOdZcjMkD-197" style="edgeStyle=orthogonalEdgeStyle;rounded=1;orthogonalLoop=1;jettySize=auto;html=1;exitX=0.75;exitY=0;exitDx=0;exitDy=0;entryX=0.5;entryY=1;entryDx=0;entryDy=0;endArrow=none;endFill=0;" parent="1" source="mdGPTOdEGKRFOdZcjMkD-46" target="mdGPTOdEGKRFOdZcjMkD-191" edge="1">
          <mxGeometry relative="1" as="geometry" />
        </mxCell>
        <mxCell id="mdGPTOdEGKRFOdZcjMkD-199" style="edgeStyle=orthogonalEdgeStyle;rounded=1;orthogonalLoop=1;jettySize=auto;html=1;exitX=0.75;exitY=1;exitDx=0;exitDy=0;entryX=0.5;entryY=0;entryDx=0;entryDy=0;endArrow=none;endFill=0;" parent="1" source="mdGPTOdEGKRFOdZcjMkD-46" target="mdGPTOdEGKRFOdZcjMkD-194" edge="1">
          <mxGeometry relative="1" as="geometry" />
        </mxCell>
        <mxCell id="mdGPTOdEGKRFOdZcjMkD-200" style="edgeStyle=orthogonalEdgeStyle;rounded=1;orthogonalLoop=1;jettySize=auto;html=1;exitX=0.25;exitY=1;exitDx=0;exitDy=0;entryX=1;entryY=1;entryDx=0;entryDy=0;endArrow=none;endFill=0;" parent="1" source="mdGPTOdEGKRFOdZcjMkD-46" target="mdGPTOdEGKRFOdZcjMkD-195" edge="1">
          <mxGeometry relative="1" as="geometry" />
        </mxCell>
        <mxCell id="mdGPTOdEGKRFOdZcjMkD-201" style="edgeStyle=orthogonalEdgeStyle;rounded=1;orthogonalLoop=1;jettySize=auto;html=1;exitX=1;exitY=0.25;exitDx=0;exitDy=0;entryX=0;entryY=1;entryDx=0;entryDy=0;endArrow=none;endFill=0;" parent="1" source="mdGPTOdEGKRFOdZcjMkD-46" target="mdGPTOdEGKRFOdZcjMkD-192" edge="1">
          <mxGeometry relative="1" as="geometry" />
        </mxCell>
        <mxCell id="mdGPTOdEGKRFOdZcjMkD-202" style="edgeStyle=orthogonalEdgeStyle;rounded=1;orthogonalLoop=1;jettySize=auto;html=1;exitX=1;exitY=0.75;exitDx=0;exitDy=0;entryX=0;entryY=0.5;entryDx=0;entryDy=0;endArrow=none;endFill=0;" parent="1" source="mdGPTOdEGKRFOdZcjMkD-46" target="mdGPTOdEGKRFOdZcjMkD-193" edge="1">
          <mxGeometry relative="1" as="geometry" />
        </mxCell>
        <mxCell id="T7kxes3MqO8vL_r_xMGx-17" style="edgeStyle=orthogonalEdgeStyle;rounded=0;orthogonalLoop=1;jettySize=auto;html=1;exitX=0.5;exitY=1;exitDx=0;exitDy=0;entryX=1;entryY=0.5;entryDx=0;entryDy=0;startArrow=ERzeroToMany;startFill=0;endArrow=none;endFill=0;" edge="1" parent="1" source="mdGPTOdEGKRFOdZcjMkD-46" target="T7kxes3MqO8vL_r_xMGx-16">
          <mxGeometry relative="1" as="geometry" />
        </mxCell>
        <mxCell id="mdGPTOdEGKRFOdZcjMkD-46" value="휴가신청" style="rounded=0;whiteSpace=wrap;html=1;" parent="1" vertex="1">
          <mxGeometry x="810" y="520" width="90" height="50" as="geometry" />
        </mxCell>
        <mxCell id="mdGPTOdEGKRFOdZcjMkD-216" style="edgeStyle=orthogonalEdgeStyle;rounded=1;orthogonalLoop=1;jettySize=auto;html=1;exitX=0.5;exitY=0;exitDx=0;exitDy=0;entryX=0.689;entryY=0.938;entryDx=0;entryDy=0;entryPerimeter=0;endArrow=none;endFill=0;" parent="1" source="mdGPTOdEGKRFOdZcjMkD-47" target="mdGPTOdEGKRFOdZcjMkD-215" edge="1">
          <mxGeometry relative="1" as="geometry" />
        </mxCell>
        <mxCell id="mdGPTOdEGKRFOdZcjMkD-217" style="edgeStyle=orthogonalEdgeStyle;rounded=1;orthogonalLoop=1;jettySize=auto;html=1;exitX=1;exitY=0;exitDx=0;exitDy=0;entryX=0;entryY=1;entryDx=0;entryDy=0;endArrow=none;endFill=0;" parent="1" source="mdGPTOdEGKRFOdZcjMkD-47" target="mdGPTOdEGKRFOdZcjMkD-213" edge="1">
          <mxGeometry relative="1" as="geometry" />
        </mxCell>
        <mxCell id="mdGPTOdEGKRFOdZcjMkD-218" style="edgeStyle=orthogonalEdgeStyle;rounded=1;orthogonalLoop=1;jettySize=auto;html=1;exitX=1;exitY=0.5;exitDx=0;exitDy=0;entryX=0.5;entryY=0;entryDx=0;entryDy=0;endArrow=none;endFill=0;" parent="1" source="mdGPTOdEGKRFOdZcjMkD-47" target="mdGPTOdEGKRFOdZcjMkD-214" edge="1">
          <mxGeometry relative="1" as="geometry" />
        </mxCell>
        <mxCell id="T7kxes3MqO8vL_r_xMGx-11" style="edgeStyle=orthogonalEdgeStyle;rounded=0;orthogonalLoop=1;jettySize=auto;html=1;exitX=0;exitY=0.5;exitDx=0;exitDy=0;entryX=1;entryY=0.5;entryDx=0;entryDy=0;startArrow=ERone;startFill=0;endArrow=none;endFill=0;" edge="1" parent="1" source="mdGPTOdEGKRFOdZcjMkD-47" target="mdGPTOdEGKRFOdZcjMkD-210">
          <mxGeometry relative="1" as="geometry" />
        </mxCell>
        <mxCell id="mdGPTOdEGKRFOdZcjMkD-47" value="휴가 사용 현황" style="rounded=0;whiteSpace=wrap;html=1;" parent="1" vertex="1">
          <mxGeometry x="585" y="470" width="90" height="50" as="geometry" />
        </mxCell>
        <mxCell id="mdGPTOdEGKRFOdZcjMkD-157" style="edgeStyle=orthogonalEdgeStyle;rounded=1;orthogonalLoop=1;jettySize=auto;html=1;exitX=0.5;exitY=1;exitDx=0;exitDy=0;entryX=1;entryY=0.5;entryDx=0;entryDy=0;endArrow=none;endFill=0;" parent="1" source="mdGPTOdEGKRFOdZcjMkD-48" target="mdGPTOdEGKRFOdZcjMkD-154" edge="1">
          <mxGeometry relative="1" as="geometry" />
        </mxCell>
        <mxCell id="mdGPTOdEGKRFOdZcjMkD-159" style="edgeStyle=orthogonalEdgeStyle;rounded=1;orthogonalLoop=1;jettySize=auto;html=1;exitX=1;exitY=0.5;exitDx=0;exitDy=0;entryX=0.5;entryY=1;entryDx=0;entryDy=0;endArrow=none;endFill=0;startArrow=ERone;startFill=0;" parent="1" source="mdGPTOdEGKRFOdZcjMkD-48" target="mdGPTOdEGKRFOdZcjMkD-158" edge="1">
          <mxGeometry relative="1" as="geometry" />
        </mxCell>
        <mxCell id="mdGPTOdEGKRFOdZcjMkD-172" style="edgeStyle=orthogonalEdgeStyle;rounded=1;orthogonalLoop=1;jettySize=auto;html=1;exitX=1;exitY=0.25;exitDx=0;exitDy=0;entryX=0.632;entryY=0.043;entryDx=0;entryDy=0;entryPerimeter=0;endArrow=none;endFill=0;startArrow=ERmany;startFill=0;" parent="1" source="mdGPTOdEGKRFOdZcjMkD-48" target="mdGPTOdEGKRFOdZcjMkD-171" edge="1">
          <mxGeometry relative="1" as="geometry">
            <Array as="points">
              <mxPoint x="430" y="622" />
              <mxPoint x="430" y="643" />
              <mxPoint x="526" y="643" />
            </Array>
          </mxGeometry>
        </mxCell>
        <mxCell id="mdGPTOdEGKRFOdZcjMkD-48" value="월간 근태관리" style="rounded=0;whiteSpace=wrap;html=1;" parent="1" vertex="1">
          <mxGeometry x="70" y="610" width="90" height="50" as="geometry" />
        </mxCell>
        <mxCell id="mdGPTOdEGKRFOdZcjMkD-167" style="edgeStyle=orthogonalEdgeStyle;rounded=1;orthogonalLoop=1;jettySize=auto;html=1;exitX=1;exitY=0.25;exitDx=0;exitDy=0;entryX=0;entryY=0.5;entryDx=0;entryDy=0;endArrow=none;endFill=0;" parent="1" source="mdGPTOdEGKRFOdZcjMkD-49" target="mdGPTOdEGKRFOdZcjMkD-166" edge="1">
          <mxGeometry relative="1" as="geometry" />
        </mxCell>
        <mxCell id="mdGPTOdEGKRFOdZcjMkD-168" style="edgeStyle=orthogonalEdgeStyle;rounded=1;orthogonalLoop=1;jettySize=auto;html=1;exitX=0.75;exitY=1;exitDx=0;exitDy=0;entryX=0;entryY=0.5;entryDx=0;entryDy=0;endArrow=none;endFill=0;" parent="1" source="mdGPTOdEGKRFOdZcjMkD-49" target="mdGPTOdEGKRFOdZcjMkD-164" edge="1">
          <mxGeometry relative="1" as="geometry" />
        </mxCell>
        <mxCell id="mdGPTOdEGKRFOdZcjMkD-169" style="edgeStyle=orthogonalEdgeStyle;rounded=1;orthogonalLoop=1;jettySize=auto;html=1;exitX=0.5;exitY=1;exitDx=0;exitDy=0;endArrow=none;endFill=0;" parent="1" source="mdGPTOdEGKRFOdZcjMkD-49" target="mdGPTOdEGKRFOdZcjMkD-163" edge="1">
          <mxGeometry relative="1" as="geometry" />
        </mxCell>
        <mxCell id="mdGPTOdEGKRFOdZcjMkD-170" style="edgeStyle=orthogonalEdgeStyle;rounded=1;orthogonalLoop=1;jettySize=auto;html=1;exitX=0.25;exitY=1;exitDx=0;exitDy=0;entryX=0.5;entryY=0;entryDx=0;entryDy=0;endArrow=none;endFill=0;" parent="1" source="mdGPTOdEGKRFOdZcjMkD-49" target="mdGPTOdEGKRFOdZcjMkD-165" edge="1">
          <mxGeometry relative="1" as="geometry" />
        </mxCell>
        <mxCell id="mdGPTOdEGKRFOdZcjMkD-173" style="edgeStyle=orthogonalEdgeStyle;rounded=1;orthogonalLoop=1;jettySize=auto;html=1;exitX=0.5;exitY=0;exitDx=0;exitDy=0;endArrow=none;endFill=0;startArrow=ERone;startFill=0;" parent="1" source="mdGPTOdEGKRFOdZcjMkD-49" target="mdGPTOdEGKRFOdZcjMkD-171" edge="1">
          <mxGeometry relative="1" as="geometry" />
        </mxCell>
        <mxCell id="mdGPTOdEGKRFOdZcjMkD-49" value="근무시간 진단" style="rounded=0;whiteSpace=wrap;html=1;" parent="1" vertex="1">
          <mxGeometry x="485" y="730" width="90" height="50" as="geometry" />
        </mxCell>
        <mxCell id="mdGPTOdEGKRFOdZcjMkD-62" style="edgeStyle=orthogonalEdgeStyle;rounded=1;orthogonalLoop=1;jettySize=auto;html=1;exitX=1;exitY=1;exitDx=0;exitDy=0;entryX=0.178;entryY=0;entryDx=0;entryDy=0;entryPerimeter=0;endArrow=none;endFill=0;" parent="1" source="mdGPTOdEGKRFOdZcjMkD-53" target="mdGPTOdEGKRFOdZcjMkD-40" edge="1">
          <mxGeometry relative="1" as="geometry" />
        </mxCell>
        <mxCell id="mdGPTOdEGKRFOdZcjMkD-53" value="휴게시간" style="ellipse;whiteSpace=wrap;html=1;labelBackgroundColor=none;" parent="1" vertex="1">
          <mxGeometry x="80" y="250" width="60" height="40" as="geometry" />
        </mxCell>
        <mxCell id="mdGPTOdEGKRFOdZcjMkD-61" style="edgeStyle=orthogonalEdgeStyle;rounded=1;orthogonalLoop=1;jettySize=auto;html=1;exitX=1;exitY=0.5;exitDx=0;exitDy=0;entryX=0;entryY=0.5;entryDx=0;entryDy=0;endArrow=none;endFill=0;" parent="1" source="mdGPTOdEGKRFOdZcjMkD-54" target="mdGPTOdEGKRFOdZcjMkD-40" edge="1">
          <mxGeometry relative="1" as="geometry" />
        </mxCell>
        <mxCell id="mdGPTOdEGKRFOdZcjMkD-54" value="요일" style="ellipse;whiteSpace=wrap;html=1;labelBackgroundColor=none;" parent="1" vertex="1">
          <mxGeometry x="30" y="310" width="60" height="40" as="geometry" />
        </mxCell>
        <mxCell id="mdGPTOdEGKRFOdZcjMkD-63" style="edgeStyle=orthogonalEdgeStyle;rounded=1;orthogonalLoop=1;jettySize=auto;html=1;exitX=0.5;exitY=1;exitDx=0;exitDy=0;endArrow=none;endFill=0;" parent="1" source="mdGPTOdEGKRFOdZcjMkD-55" edge="1">
          <mxGeometry relative="1" as="geometry">
            <mxPoint x="200" y="300" as="targetPoint" />
          </mxGeometry>
        </mxCell>
        <mxCell id="mdGPTOdEGKRFOdZcjMkD-55" value="근로시간" style="ellipse;whiteSpace=wrap;html=1;labelBackgroundColor=none;" parent="1" vertex="1">
          <mxGeometry x="170" y="240" width="60" height="40" as="geometry" />
        </mxCell>
        <mxCell id="mdGPTOdEGKRFOdZcjMkD-59" style="edgeStyle=orthogonalEdgeStyle;rounded=1;orthogonalLoop=1;jettySize=auto;html=1;exitX=0;exitY=0.5;exitDx=0;exitDy=0;entryX=0.9;entryY=0.55;entryDx=0;entryDy=0;entryPerimeter=0;endArrow=none;endFill=0;startArrow=ERone;startFill=0;" parent="1" source="mdGPTOdEGKRFOdZcjMkD-57" target="mdGPTOdEGKRFOdZcjMkD-58" edge="1">
          <mxGeometry relative="1" as="geometry" />
        </mxCell>
        <mxCell id="mdGPTOdEGKRFOdZcjMkD-93" style="edgeStyle=orthogonalEdgeStyle;rounded=1;orthogonalLoop=1;jettySize=auto;html=1;exitX=0.75;exitY=0;exitDx=0;exitDy=0;endArrow=none;endFill=0;" parent="1" source="mdGPTOdEGKRFOdZcjMkD-57" edge="1">
          <mxGeometry relative="1" as="geometry">
            <mxPoint x="540" y="280" as="targetPoint" />
          </mxGeometry>
        </mxCell>
        <mxCell id="T7kxes3MqO8vL_r_xMGx-6" style="edgeStyle=orthogonalEdgeStyle;rounded=0;orthogonalLoop=1;jettySize=auto;html=1;exitX=0.25;exitY=1;exitDx=0;exitDy=0;entryX=1;entryY=0.5;entryDx=0;entryDy=0;startArrow=ERmany;startFill=0;endArrow=none;endFill=0;" edge="1" parent="1" source="mdGPTOdEGKRFOdZcjMkD-57" target="mdGPTOdEGKRFOdZcjMkD-80">
          <mxGeometry relative="1" as="geometry" />
        </mxCell>
        <mxCell id="mdGPTOdEGKRFOdZcjMkD-57" value="사원(멤버)" style="rounded=0;whiteSpace=wrap;html=1;" parent="1" vertex="1">
          <mxGeometry x="400" y="360" width="90" height="40" as="geometry" />
        </mxCell>
        <mxCell id="mdGPTOdEGKRFOdZcjMkD-58" value="신청하다" style="rhombus;whiteSpace=wrap;html=1;" parent="1" vertex="1">
          <mxGeometry x="280" y="370" width="60" height="40" as="geometry" />
        </mxCell>
        <mxCell id="mdGPTOdEGKRFOdZcjMkD-64" value="설정하다" style="rhombus;whiteSpace=wrap;html=1;" parent="1" vertex="1">
          <mxGeometry x="270" y="260" width="60" height="40" as="geometry" />
        </mxCell>
        <mxCell id="mdGPTOdEGKRFOdZcjMkD-65" value="관리하다" style="rhombus;whiteSpace=wrap;html=1;" parent="1" vertex="1">
          <mxGeometry x="400" y="210" width="60" height="40" as="geometry" />
        </mxCell>
        <mxCell id="mdGPTOdEGKRFOdZcjMkD-84" style="edgeStyle=orthogonalEdgeStyle;rounded=1;orthogonalLoop=1;jettySize=auto;html=1;exitX=1;exitY=1;exitDx=0;exitDy=0;entryX=0.25;entryY=0;entryDx=0;entryDy=0;endArrow=none;endFill=0;" parent="1" source="mdGPTOdEGKRFOdZcjMkD-71" target="mdGPTOdEGKRFOdZcjMkD-41" edge="1">
          <mxGeometry relative="1" as="geometry" />
        </mxCell>
        <mxCell id="mdGPTOdEGKRFOdZcjMkD-71" value="근무일자" style="ellipse;whiteSpace=wrap;html=1;labelBackgroundColor=none;" parent="1" vertex="1">
          <mxGeometry x="20" y="400" width="60" height="40" as="geometry" />
        </mxCell>
        <mxCell id="mdGPTOdEGKRFOdZcjMkD-89" style="edgeStyle=orthogonalEdgeStyle;rounded=1;orthogonalLoop=1;jettySize=auto;html=1;exitX=0.5;exitY=1;exitDx=0;exitDy=0;entryX=0.644;entryY=-0.062;entryDx=0;entryDy=0;entryPerimeter=0;endArrow=none;endFill=0;" parent="1" source="mdGPTOdEGKRFOdZcjMkD-72" target="mdGPTOdEGKRFOdZcjMkD-41" edge="1">
          <mxGeometry relative="1" as="geometry" />
        </mxCell>
        <mxCell id="mdGPTOdEGKRFOdZcjMkD-72" value="사원번호" style="ellipse;whiteSpace=wrap;html=1;labelBackgroundColor=none;" parent="1" vertex="1">
          <mxGeometry x="95" y="400" width="60" height="40" as="geometry" />
        </mxCell>
        <mxCell id="mdGPTOdEGKRFOdZcjMkD-85" style="edgeStyle=orthogonalEdgeStyle;rounded=1;orthogonalLoop=1;jettySize=auto;html=1;exitX=1;exitY=0.5;exitDx=0;exitDy=0;entryX=0;entryY=0.5;entryDx=0;entryDy=0;endArrow=none;endFill=0;" parent="1" source="mdGPTOdEGKRFOdZcjMkD-73" target="mdGPTOdEGKRFOdZcjMkD-41" edge="1">
          <mxGeometry relative="1" as="geometry" />
        </mxCell>
        <mxCell id="mdGPTOdEGKRFOdZcjMkD-73" value="성명" style="ellipse;whiteSpace=wrap;html=1;labelBackgroundColor=none;" parent="1" vertex="1">
          <mxGeometry x="-10" y="455" width="60" height="40" as="geometry" />
        </mxCell>
        <mxCell id="mdGPTOdEGKRFOdZcjMkD-86" style="edgeStyle=orthogonalEdgeStyle;rounded=1;orthogonalLoop=1;jettySize=auto;html=1;exitX=1;exitY=0;exitDx=0;exitDy=0;entryX=0.133;entryY=1.03;entryDx=0;entryDy=0;entryPerimeter=0;endArrow=none;endFill=0;" parent="1" source="mdGPTOdEGKRFOdZcjMkD-74" target="mdGPTOdEGKRFOdZcjMkD-41" edge="1">
          <mxGeometry relative="1" as="geometry" />
        </mxCell>
        <mxCell id="mdGPTOdEGKRFOdZcjMkD-74" value="근무유형" style="ellipse;whiteSpace=wrap;html=1;labelBackgroundColor=none;" parent="1" vertex="1">
          <mxGeometry x="5" y="510" width="60" height="40" as="geometry" />
        </mxCell>
        <mxCell id="mdGPTOdEGKRFOdZcjMkD-87" style="edgeStyle=orthogonalEdgeStyle;rounded=1;orthogonalLoop=1;jettySize=auto;html=1;exitX=0.5;exitY=0;exitDx=0;exitDy=0;entryX=0.5;entryY=1;entryDx=0;entryDy=0;endArrow=none;endFill=0;" parent="1" source="mdGPTOdEGKRFOdZcjMkD-75" target="mdGPTOdEGKRFOdZcjMkD-41" edge="1">
          <mxGeometry relative="1" as="geometry" />
        </mxCell>
        <mxCell id="mdGPTOdEGKRFOdZcjMkD-75" value="출근시간" style="ellipse;whiteSpace=wrap;html=1;labelBackgroundColor=none;" parent="1" vertex="1">
          <mxGeometry x="80" y="510" width="60" height="40" as="geometry" />
        </mxCell>
        <mxCell id="mdGPTOdEGKRFOdZcjMkD-88" style="edgeStyle=orthogonalEdgeStyle;rounded=1;orthogonalLoop=1;jettySize=auto;html=1;exitX=0.5;exitY=0;exitDx=0;exitDy=0;entryX=1;entryY=0.75;entryDx=0;entryDy=0;endArrow=none;endFill=0;" parent="1" source="mdGPTOdEGKRFOdZcjMkD-76" target="mdGPTOdEGKRFOdZcjMkD-41" edge="1">
          <mxGeometry relative="1" as="geometry" />
        </mxCell>
        <mxCell id="mdGPTOdEGKRFOdZcjMkD-76" value="퇴근시간" style="ellipse;whiteSpace=wrap;html=1;labelBackgroundColor=none;" parent="1" vertex="1">
          <mxGeometry x="150" y="510" width="60" height="40" as="geometry" />
        </mxCell>
        <mxCell id="mdGPTOdEGKRFOdZcjMkD-80" value="등록하다" style="rhombus;whiteSpace=wrap;html=1;" parent="1" vertex="1">
          <mxGeometry x="250" y="440" width="60" height="40" as="geometry" />
        </mxCell>
        <mxCell id="mdGPTOdEGKRFOdZcjMkD-92" style="edgeStyle=orthogonalEdgeStyle;rounded=1;orthogonalLoop=1;jettySize=auto;html=1;exitX=0.5;exitY=1;exitDx=0;exitDy=0;endArrow=none;endFill=0;" parent="1" source="mdGPTOdEGKRFOdZcjMkD-90" edge="1">
          <mxGeometry relative="1" as="geometry">
            <mxPoint x="160" y="460" as="targetPoint" />
          </mxGeometry>
        </mxCell>
        <mxCell id="mdGPTOdEGKRFOdZcjMkD-90" value="근무설정값" style="rhombus;whiteSpace=wrap;html=1;" parent="1" vertex="1">
          <mxGeometry x="170" y="400" width="60" height="40" as="geometry" />
        </mxCell>
        <mxCell id="mdGPTOdEGKRFOdZcjMkD-96" style="edgeStyle=orthogonalEdgeStyle;rounded=1;orthogonalLoop=1;jettySize=auto;html=1;exitX=1;exitY=0;exitDx=0;exitDy=0;entryX=0.5;entryY=1;entryDx=0;entryDy=0;endArrow=none;endFill=0;" parent="1" source="mdGPTOdEGKRFOdZcjMkD-95" target="mdGPTOdEGKRFOdZcjMkD-29" edge="1">
          <mxGeometry relative="1" as="geometry" />
        </mxCell>
        <mxCell id="mdGPTOdEGKRFOdZcjMkD-95" value="권한있다" style="rhombus;whiteSpace=wrap;html=1;" parent="1" vertex="1">
          <mxGeometry x="510" y="240" width="60" height="40" as="geometry" />
        </mxCell>
        <mxCell id="mdGPTOdEGKRFOdZcjMkD-97" value="신청일자" style="ellipse;whiteSpace=wrap;html=1;" parent="1" vertex="1">
          <mxGeometry x="615" y="240" width="60" height="40" as="geometry" />
        </mxCell>
        <mxCell id="mdGPTOdEGKRFOdZcjMkD-98" value="출근시간" style="ellipse;whiteSpace=wrap;html=1;labelBackgroundColor=none;" parent="1" vertex="1">
          <mxGeometry x="675" y="200" width="60" height="40" as="geometry" />
        </mxCell>
        <mxCell id="mdGPTOdEGKRFOdZcjMkD-99" value="퇴근시간" style="ellipse;whiteSpace=wrap;html=1;labelBackgroundColor=none;" parent="1" vertex="1">
          <mxGeometry x="740" y="210" width="60" height="40" as="geometry" />
        </mxCell>
        <mxCell id="mdGPTOdEGKRFOdZcjMkD-100" value="조정 퇴근시간" style="ellipse;whiteSpace=wrap;html=1;labelBackgroundColor=none;" parent="1" vertex="1">
          <mxGeometry x="800" y="290" width="80" height="40" as="geometry" />
        </mxCell>
        <mxCell id="mdGPTOdEGKRFOdZcjMkD-101" value="조정 출근시간" style="ellipse;whiteSpace=wrap;html=1;labelBackgroundColor=none;" parent="1" vertex="1">
          <mxGeometry x="790" y="240" width="80" height="40" as="geometry" />
        </mxCell>
        <mxCell id="mdGPTOdEGKRFOdZcjMkD-102" value="조정 사유" style="ellipse;whiteSpace=wrap;html=1;labelBackgroundColor=none;" parent="1" vertex="1">
          <mxGeometry x="750" y="340" width="80" height="40" as="geometry" />
        </mxCell>
        <mxCell id="mdGPTOdEGKRFOdZcjMkD-110" value="기존신청정보조회" style="rhombus;whiteSpace=wrap;html=1;" parent="1" vertex="1">
          <mxGeometry x="510" y="315" width="110" height="40" as="geometry" />
        </mxCell>
        <mxCell id="mdGPTOdEGKRFOdZcjMkD-115" style="edgeStyle=orthogonalEdgeStyle;rounded=1;orthogonalLoop=1;jettySize=auto;html=1;exitX=0.5;exitY=0;exitDx=0;exitDy=0;entryX=0;entryY=1;entryDx=0;entryDy=0;endArrow=none;endFill=0;" parent="1" source="mdGPTOdEGKRFOdZcjMkD-114" target="mdGPTOdEGKRFOdZcjMkD-43" edge="1">
          <mxGeometry relative="1" as="geometry" />
        </mxCell>
        <mxCell id="mdGPTOdEGKRFOdZcjMkD-114" value="결제직원" style="ellipse;whiteSpace=wrap;html=1;labelBackgroundColor=none;" parent="1" vertex="1">
          <mxGeometry x="620" y="370" width="60" height="40" as="geometry" />
        </mxCell>
        <mxCell id="mdGPTOdEGKRFOdZcjMkD-128" style="edgeStyle=orthogonalEdgeStyle;rounded=1;orthogonalLoop=1;jettySize=auto;html=1;exitX=1;exitY=0.5;exitDx=0;exitDy=0;entryX=0.25;entryY=1;entryDx=0;entryDy=0;endArrow=none;endFill=0;" parent="1" source="mdGPTOdEGKRFOdZcjMkD-116" target="mdGPTOdEGKRFOdZcjMkD-42" edge="1">
          <mxGeometry relative="1" as="geometry" />
        </mxCell>
        <mxCell id="mdGPTOdEGKRFOdZcjMkD-116" value="결제상태" style="ellipse;whiteSpace=wrap;html=1;labelBackgroundColor=none;" parent="1" vertex="1">
          <mxGeometry x="5" y="830" width="55" height="40" as="geometry" />
        </mxCell>
        <mxCell id="mdGPTOdEGKRFOdZcjMkD-129" style="edgeStyle=orthogonalEdgeStyle;rounded=1;orthogonalLoop=1;jettySize=auto;html=1;exitX=1;exitY=0;exitDx=0;exitDy=0;endArrow=none;endFill=0;entryX=0.5;entryY=1;entryDx=0;entryDy=0;" parent="1" source="mdGPTOdEGKRFOdZcjMkD-118" target="mdGPTOdEGKRFOdZcjMkD-42" edge="1">
          <mxGeometry relative="1" as="geometry">
            <mxPoint x="160" y="819.9999999999998" as="targetPoint" />
          </mxGeometry>
        </mxCell>
        <mxCell id="mdGPTOdEGKRFOdZcjMkD-118" value="승인여부" style="ellipse;whiteSpace=wrap;html=1;labelBackgroundColor=none;" parent="1" vertex="1">
          <mxGeometry x="65" y="870" width="60" height="40" as="geometry" />
        </mxCell>
        <mxCell id="mdGPTOdEGKRFOdZcjMkD-127" style="edgeStyle=orthogonalEdgeStyle;rounded=1;orthogonalLoop=1;jettySize=auto;html=1;exitX=1;exitY=0.5;exitDx=0;exitDy=0;entryX=0;entryY=0.5;entryDx=0;entryDy=0;endArrow=none;endFill=0;" parent="1" source="mdGPTOdEGKRFOdZcjMkD-119" target="mdGPTOdEGKRFOdZcjMkD-42" edge="1">
          <mxGeometry relative="1" as="geometry" />
        </mxCell>
        <mxCell id="mdGPTOdEGKRFOdZcjMkD-119" value="사원번호" style="ellipse;whiteSpace=wrap;html=1;labelBackgroundColor=none;" parent="1" vertex="1">
          <mxGeometry x="20" y="760" width="60" height="40" as="geometry" />
        </mxCell>
        <mxCell id="mdGPTOdEGKRFOdZcjMkD-133" style="edgeStyle=orthogonalEdgeStyle;rounded=1;orthogonalLoop=1;jettySize=auto;html=1;exitX=0.5;exitY=0;exitDx=0;exitDy=0;entryX=0.75;entryY=1;entryDx=0;entryDy=0;endArrow=none;endFill=0;" parent="1" source="mdGPTOdEGKRFOdZcjMkD-120" target="mdGPTOdEGKRFOdZcjMkD-42" edge="1">
          <mxGeometry relative="1" as="geometry" />
        </mxCell>
        <mxCell id="mdGPTOdEGKRFOdZcjMkD-120" value="사원이름" style="ellipse;whiteSpace=wrap;html=1;labelBackgroundColor=none;" parent="1" vertex="1">
          <mxGeometry x="140" y="890" width="60" height="40" as="geometry" />
        </mxCell>
        <mxCell id="mdGPTOdEGKRFOdZcjMkD-126" style="edgeStyle=orthogonalEdgeStyle;rounded=1;orthogonalLoop=1;jettySize=auto;html=1;exitX=1;exitY=0.5;exitDx=0;exitDy=0;entryX=0.25;entryY=0;entryDx=0;entryDy=0;endArrow=none;endFill=0;" parent="1" source="mdGPTOdEGKRFOdZcjMkD-121" target="mdGPTOdEGKRFOdZcjMkD-42" edge="1">
          <mxGeometry relative="1" as="geometry" />
        </mxCell>
        <mxCell id="mdGPTOdEGKRFOdZcjMkD-121" value="조정사유" style="ellipse;whiteSpace=wrap;html=1;labelBackgroundColor=none;" parent="1" vertex="1">
          <mxGeometry x="35" y="705" width="60" height="40" as="geometry" />
        </mxCell>
        <mxCell id="mdGPTOdEGKRFOdZcjMkD-131" style="edgeStyle=orthogonalEdgeStyle;rounded=1;orthogonalLoop=1;jettySize=auto;html=1;exitX=0;exitY=0;exitDx=0;exitDy=0;entryX=1;entryY=1;entryDx=0;entryDy=0;endArrow=none;endFill=0;" parent="1" source="mdGPTOdEGKRFOdZcjMkD-122" target="mdGPTOdEGKRFOdZcjMkD-42" edge="1">
          <mxGeometry relative="1" as="geometry" />
        </mxCell>
        <mxCell id="mdGPTOdEGKRFOdZcjMkD-122" value="취소사유" style="ellipse;whiteSpace=wrap;html=1;labelBackgroundColor=none;" parent="1" vertex="1">
          <mxGeometry x="210" y="880" width="60" height="40" as="geometry" />
        </mxCell>
        <mxCell id="mdGPTOdEGKRFOdZcjMkD-132" style="edgeStyle=orthogonalEdgeStyle;rounded=1;orthogonalLoop=1;jettySize=auto;html=1;exitX=0.5;exitY=0;exitDx=0;exitDy=0;entryX=1;entryY=0.5;entryDx=0;entryDy=0;endArrow=none;endFill=0;" parent="1" source="mdGPTOdEGKRFOdZcjMkD-125" target="mdGPTOdEGKRFOdZcjMkD-42" edge="1">
          <mxGeometry relative="1" as="geometry">
            <Array as="points">
              <mxPoint x="280" y="800" />
              <mxPoint x="210" y="800" />
            </Array>
          </mxGeometry>
        </mxCell>
        <mxCell id="mdGPTOdEGKRFOdZcjMkD-125" value="조정출퇴근시간" style="ellipse;whiteSpace=wrap;html=1;labelBackgroundColor=none;" parent="1" vertex="1">
          <mxGeometry x="240" y="830" width="80" height="40" as="geometry" />
        </mxCell>
        <mxCell id="mdGPTOdEGKRFOdZcjMkD-134" value="신청하다" style="rhombus;whiteSpace=wrap;html=1;" parent="1" vertex="1">
          <mxGeometry x="280" y="600" width="80" height="60" as="geometry" />
        </mxCell>
        <mxCell id="mdGPTOdEGKRFOdZcjMkD-137" value="신청일" style="ellipse;whiteSpace=wrap;html=1;labelBackgroundColor=none;" parent="1" vertex="1">
          <mxGeometry x="270" y="670" width="60" height="40" as="geometry" />
        </mxCell>
        <mxCell id="mdGPTOdEGKRFOdZcjMkD-138" value="상신자명" style="ellipse;whiteSpace=wrap;html=1;labelBackgroundColor=none;" parent="1" vertex="1">
          <mxGeometry x="340" y="660" width="60" height="40" as="geometry" />
        </mxCell>
        <mxCell id="mdGPTOdEGKRFOdZcjMkD-140" value="잔여 연장근무 시간" style="ellipse;whiteSpace=wrap;html=1;labelBackgroundColor=none;" parent="1" vertex="1">
          <mxGeometry x="260" y="720" width="60" height="40" as="geometry" />
        </mxCell>
        <mxCell id="mdGPTOdEGKRFOdZcjMkD-141" value="연장근무시간" style="ellipse;whiteSpace=wrap;html=1;labelBackgroundColor=none;" parent="1" vertex="1">
          <mxGeometry x="300" y="790" width="60" height="40" as="geometry" />
        </mxCell>
        <mxCell id="mdGPTOdEGKRFOdZcjMkD-142" value="결제상태" style="ellipse;whiteSpace=wrap;html=1;labelBackgroundColor=none;" parent="1" vertex="1">
          <mxGeometry x="370" y="830" width="60" height="40" as="geometry" />
        </mxCell>
        <mxCell id="mdGPTOdEGKRFOdZcjMkD-155" style="edgeStyle=orthogonalEdgeStyle;rounded=1;orthogonalLoop=1;jettySize=auto;html=1;exitX=1;exitY=0.5;exitDx=0;exitDy=0;entryX=0.5;entryY=0;entryDx=0;entryDy=0;endArrow=none;endFill=0;" parent="1" source="mdGPTOdEGKRFOdZcjMkD-151" target="mdGPTOdEGKRFOdZcjMkD-48" edge="1">
          <mxGeometry relative="1" as="geometry" />
        </mxCell>
        <mxCell id="mdGPTOdEGKRFOdZcjMkD-151" value="사원정보" style="ellipse;whiteSpace=wrap;html=1;labelBackgroundColor=none;" parent="1" vertex="1">
          <mxGeometry x="-10" y="585" width="60" height="45" as="geometry" />
        </mxCell>
        <mxCell id="mdGPTOdEGKRFOdZcjMkD-156" style="edgeStyle=orthogonalEdgeStyle;rounded=1;orthogonalLoop=1;jettySize=auto;html=1;exitX=1;exitY=0.5;exitDx=0;exitDy=0;entryX=0;entryY=0.5;entryDx=0;entryDy=0;endArrow=none;endFill=0;" parent="1" source="mdGPTOdEGKRFOdZcjMkD-152" target="mdGPTOdEGKRFOdZcjMkD-48" edge="1">
          <mxGeometry relative="1" as="geometry" />
        </mxCell>
        <mxCell id="mdGPTOdEGKRFOdZcjMkD-152" value="요일,날짜" style="ellipse;whiteSpace=wrap;html=1;labelBackgroundColor=none;" parent="1" vertex="1">
          <mxGeometry x="-90" y="620" width="60" height="40" as="geometry" />
        </mxCell>
        <mxCell id="mdGPTOdEGKRFOdZcjMkD-154" value="일일근무현황" style="ellipse;whiteSpace=wrap;html=1;labelBackgroundColor=none;" parent="1" vertex="1">
          <mxGeometry x="-25" y="650" width="65" height="40" as="geometry" />
        </mxCell>
        <mxCell id="mdGPTOdEGKRFOdZcjMkD-158" value="근태현황조회" style="rhombus;whiteSpace=wrap;html=1;" parent="1" vertex="1">
          <mxGeometry x="180" y="560" width="100" height="60" as="geometry" />
        </mxCell>
        <mxCell id="mdGPTOdEGKRFOdZcjMkD-163" value="사원정보" style="ellipse;whiteSpace=wrap;html=1;labelBackgroundColor=none;" parent="1" vertex="1">
          <mxGeometry x="515" y="820" width="60" height="40" as="geometry" />
        </mxCell>
        <mxCell id="mdGPTOdEGKRFOdZcjMkD-164" value="계획근로시간" style="ellipse;whiteSpace=wrap;html=1;labelBackgroundColor=none;" parent="1" vertex="1">
          <mxGeometry x="585" y="780" width="60" height="40" as="geometry" />
        </mxCell>
        <mxCell id="mdGPTOdEGKRFOdZcjMkD-165" value="실근로시간" style="ellipse;whiteSpace=wrap;html=1;labelBackgroundColor=none;" parent="1" vertex="1">
          <mxGeometry x="455" y="800" width="60" height="40" as="geometry" />
        </mxCell>
        <mxCell id="mdGPTOdEGKRFOdZcjMkD-166" value="연장근로시간" style="ellipse;whiteSpace=wrap;html=1;labelBackgroundColor=none;" parent="1" vertex="1">
          <mxGeometry x="600" y="730" width="60" height="40" as="geometry" />
        </mxCell>
        <mxCell id="mdGPTOdEGKRFOdZcjMkD-171" value="근태현황" style="rhombus;whiteSpace=wrap;html=1;" parent="1" vertex="1">
          <mxGeometry x="475" y="645" width="80" height="45" as="geometry" />
        </mxCell>
        <mxCell id="mdGPTOdEGKRFOdZcjMkD-174" value="사원정보" style="ellipse;whiteSpace=wrap;html=1;labelBackgroundColor=none;" parent="1" vertex="1">
          <mxGeometry x="590" y="600" width="60" height="40" as="geometry" />
        </mxCell>
        <mxCell id="mdGPTOdEGKRFOdZcjMkD-175" value="연차기준" style="ellipse;whiteSpace=wrap;html=1;labelBackgroundColor=none;" parent="1" vertex="1">
          <mxGeometry x="580" y="680" width="60" height="40" as="geometry" />
        </mxCell>
        <mxCell id="mdGPTOdEGKRFOdZcjMkD-176" value="입사일" style="ellipse;whiteSpace=wrap;html=1;labelBackgroundColor=none;" parent="1" vertex="1">
          <mxGeometry x="675" y="750" width="60" height="40" as="geometry" />
        </mxCell>
        <mxCell id="mdGPTOdEGKRFOdZcjMkD-177" value="근속연수" style="ellipse;whiteSpace=wrap;html=1;labelBackgroundColor=none;" parent="1" vertex="1">
          <mxGeometry x="675" y="600" width="60" height="40" as="geometry" />
        </mxCell>
        <mxCell id="mdGPTOdEGKRFOdZcjMkD-179" value="연차사용기간" style="ellipse;whiteSpace=wrap;html=1;labelBackgroundColor=none;" parent="1" vertex="1">
          <mxGeometry x="750" y="760" width="60" height="40" as="geometry" />
        </mxCell>
        <mxCell id="mdGPTOdEGKRFOdZcjMkD-180" value="연차생성일" style="ellipse;whiteSpace=wrap;html=1;labelBackgroundColor=none;" parent="1" vertex="1">
          <mxGeometry x="767" y="640" width="60" height="40" as="geometry" />
        </mxCell>
        <mxCell id="mdGPTOdEGKRFOdZcjMkD-182" value="발생연차" style="ellipse;whiteSpace=wrap;html=1;labelBackgroundColor=none;" parent="1" vertex="1">
          <mxGeometry x="770" y="710" width="60" height="40" as="geometry" />
        </mxCell>
        <mxCell id="mdGPTOdEGKRFOdZcjMkD-190" value="휴가신청일" style="ellipse;whiteSpace=wrap;html=1;labelBackgroundColor=none;" parent="1" vertex="1">
          <mxGeometry x="780" y="460" width="60" height="40" as="geometry" />
        </mxCell>
        <mxCell id="mdGPTOdEGKRFOdZcjMkD-191" value="휴가구분" style="ellipse;whiteSpace=wrap;html=1;labelBackgroundColor=none;" parent="1" vertex="1">
          <mxGeometry x="850" y="460" width="60" height="40" as="geometry" />
        </mxCell>
        <mxCell id="mdGPTOdEGKRFOdZcjMkD-192" value="전일/반일" style="ellipse;whiteSpace=wrap;html=1;labelBackgroundColor=none;" parent="1" vertex="1">
          <mxGeometry x="920" y="495" width="60" height="40" as="geometry" />
        </mxCell>
        <mxCell id="mdGPTOdEGKRFOdZcjMkD-193" value="휴가기간" style="ellipse;whiteSpace=wrap;html=1;labelBackgroundColor=none;" parent="1" vertex="1">
          <mxGeometry x="920" y="550" width="60" height="40" as="geometry" />
        </mxCell>
        <mxCell id="mdGPTOdEGKRFOdZcjMkD-194" value="휴가사유" style="ellipse;whiteSpace=wrap;html=1;labelBackgroundColor=none;" parent="1" vertex="1">
          <mxGeometry x="860" y="587.5" width="60" height="40" as="geometry" />
        </mxCell>
        <mxCell id="mdGPTOdEGKRFOdZcjMkD-195" value="상신자" style="ellipse;whiteSpace=wrap;html=1;labelBackgroundColor=none;" parent="1" vertex="1">
          <mxGeometry x="735" y="547.5" width="60" height="40" as="geometry" />
        </mxCell>
        <mxCell id="mdGPTOdEGKRFOdZcjMkD-203" value="연차기준조회" style="rhombus;whiteSpace=wrap;html=1;" parent="1" vertex="1">
          <mxGeometry x="540" y="545" width="70" height="45" as="geometry" />
        </mxCell>
        <mxCell id="mdGPTOdEGKRFOdZcjMkD-206" style="edgeStyle=orthogonalEdgeStyle;rounded=1;orthogonalLoop=1;jettySize=auto;html=1;entryX=0;entryY=0.5;entryDx=0;entryDy=0;endArrow=none;endFill=0;exitX=0.5;exitY=1;exitDx=0;exitDy=0;startArrow=ERone;startFill=0;" parent="1" source="mdGPTOdEGKRFOdZcjMkD-57" target="mdGPTOdEGKRFOdZcjMkD-203" edge="1">
          <mxGeometry relative="1" as="geometry">
            <mxPoint x="445" y="470" as="sourcePoint" />
          </mxGeometry>
        </mxCell>
        <mxCell id="mdGPTOdEGKRFOdZcjMkD-210" value="조회하다" style="rhombus;whiteSpace=wrap;html=1;" parent="1" vertex="1">
          <mxGeometry x="510" y="465" width="60" height="45" as="geometry" />
        </mxCell>
        <mxCell id="mdGPTOdEGKRFOdZcjMkD-213" value="휴가현황" style="ellipse;whiteSpace=wrap;html=1;labelBackgroundColor=none;" parent="1" vertex="1">
          <mxGeometry x="680" y="430" width="60" height="40" as="geometry" />
        </mxCell>
        <mxCell id="mdGPTOdEGKRFOdZcjMkD-214" value="사원명" style="ellipse;whiteSpace=wrap;html=1;labelBackgroundColor=none;" parent="1" vertex="1">
          <mxGeometry x="680" y="507.5" width="60" height="40" as="geometry" />
        </mxCell>
        <mxCell id="mdGPTOdEGKRFOdZcjMkD-215" value="휴가날짜" style="ellipse;whiteSpace=wrap;html=1;labelBackgroundColor=none;" parent="1" vertex="1">
          <mxGeometry x="590" y="415" width="60" height="40" as="geometry" />
        </mxCell>
        <mxCell id="T7kxes3MqO8vL_r_xMGx-12" value="조회하다" style="rhombus;whiteSpace=wrap;html=1;" vertex="1" parent="1">
          <mxGeometry x="320" y="930" width="60" height="45" as="geometry" />
        </mxCell>
        <mxCell id="T7kxes3MqO8vL_r_xMGx-16" value="신청하다" style="rhombus;whiteSpace=wrap;html=1;" vertex="1" parent="1">
          <mxGeometry x="725" y="890" width="80" height="60" as="geometry" />
        </mxCell>
      </root>
    </mxGraphModel>
  </diagram>
</mxfile>
